<?xml version="1.0" encoding="UTF-8" standalone="no"?>
<!-- Created with Inkscape (http://www.inkscape.org/) -->

<svg
   xmlns:dc="http://purl.org/dc/elements/1.1/"
   xmlns:cc="http://creativecommons.org/ns#"
   xmlns:rdf="http://www.w3.org/1999/02/22-rdf-syntax-ns#"
   xmlns:svg="http://www.w3.org/2000/svg"
   xmlns="http://www.w3.org/2000/svg"
   xmlns:sodipodi="http://sodipodi.sourceforge.net/DTD/sodipodi-0.dtd"
   xmlns:inkscape="http://www.inkscape.org/namespaces/inkscape"
   id="svg2"
   version="1.1"
   inkscape:version="0.91 r13725"
   width="48.712406"
   height="71.443565"
   viewBox="0 0 48.712406 71.443564"
   sodipodi:docname="makucMarker.svg"
   inkscape:export-filename="C:\Razvoj\obljubiva-si\images\makucMarker.png"
   inkscape:export-xdpi="62.986778"
   inkscape:export-ydpi="62.986778">
  <metadata
     id="metadata8">
    <rdf:RDF>
      <cc:Work
         rdf:about="">
        <dc:format>image/svg+xml</dc:format>
        <dc:type
           rdf:resource="http://purl.org/dc/dcmitype/StillImage" />
        <dc:title></dc:title>
      </cc:Work>
    </rdf:RDF>
  </metadata>
  <defs
     id="defs6" />
  <sodipodi:namedview
     pagecolor="#ffffff"
     bordercolor="#666666"
     borderopacity="1"
     objecttolerance="10"
     gridtolerance="10"
     guidetolerance="10"
     inkscape:pageopacity="0"
     inkscape:pageshadow="2"
     inkscape:window-width="1920"
     inkscape:window-height="1017"
     id="namedview4"
     showgrid="false"
     fit-margin-top="0"
     fit-margin-left="0"
     fit-margin-right="0"
     fit-margin-bottom="0"
     inkscape:zoom="10.136913"
     inkscape:cx="26.228732"
     inkscape:cy="37.070424"
     inkscape:window-x="-8"
     inkscape:window-y="-8"
     inkscape:window-maximized="1"
     inkscape:current-layer="svg2" />
  <path
     style="fill:#75121c;fill-opacity:1"
     d="M 24.354521,0 C 10.906165,0 0,10.906165 0,24.35452 0,32.23026 3.740892,39.227176 9.5357393,43.680218 L 24.786062,71.443564 39.174985,43.680218 C 44.969832,39.227176 48.712408,32.23026 48.712408,24.35452 48.712408,10.906165 37.807927,0 24.354521,0 Z"
     id="path4721"
     inkscape:connector-curvature="0"
     sodipodi:nodetypes="sscccss" />
  <path
     sodipodi:nodetypes="sscccss"
     inkscape:connector-curvature="0"
     id="path5341"
     d="m 24.354665,2.170286 c -12.297046,0 -22.2695382,9.972492 -22.2695382,22.269538 0,7.2015 3.4206354,13.599412 8.7193882,17.671231 L 24.749262,67.49759 37.906354,42.111055 c 5.298752,-4.071819 8.720927,-10.469731 8.720927,-17.671231 0,-12.297046 -9.970952,-22.269538 -22.272616,-22.269538 z"
     style="fill:#174d0f;fill-opacity:1" />
  <path
     inkscape:connector-curvature="0"
     id="path4789"
     d="m 14.877346,35.296815 c -0.242837,-0.06446 -0.639924,-0.426828 -0.754205,-0.688208 -0.08653,-0.197872 -0.09202,-0.448304 -0.105814,-4.816794 -0.0084,-2.534438 -0.0025,-4.67537 0.01266,-4.75762 0.03127,-0.17208 -0.103769,-0.05692 4.634488,-3.952039 0.903231,-0.742511 1.809539,-1.491124 2.014009,-1.663581 0.204479,-0.172465 0.457006,-0.379743 0.561169,-0.460635 0.104163,-0.08089 0.534177,-0.433845 0.955573,-0.784349 1.205527,-1.002726 2.353574,-1.946085 2.582958,-2.122448 l 0.210136,-0.161567 0.210137,0.161567 c 0.237732,0.182784 1.443007,1.172827 2.583862,2.122448 0.421095,0.350504 0.850212,0.703464 0.953603,0.784349 0.103392,0.08089 0.61092,0.500025 1.127845,0.931422 0.516926,0.431389 1.465398,1.214522 2.10772,1.740282 3.401775,2.78446 3.949825,3.247049 3.977077,3.356954 0.0135,0.05449 0.01819,2.205821 0.01039,4.780706 l -0.01417,4.681599 -0.108253,0.202374 c -0.151047,0.282395 -0.508761,0.583576 -0.77175,0.649799 -0.150526,0.03789 -1.356607,0.05474 -3.921357,0.05474 l -3.703962,0 0,-3.652601 0,-3.652594 -2.438852,0.01274 -2.438842,0.01274 -0.01257,3.639885 -0.01257,3.639885 -3.737619,-0.005 c -2.310814,-0.0034 -3.807848,-0.02372 -3.921601,-0.0539 z M 11.188598,25.25894 c -0.12496,-0.05239 -0.325557,-0.26739 -0.972003,-1.041537 -0.2862091,-0.34275 -0.5344616,-0.679306 -0.5516796,-0.747909 -0.017184,-0.06857 -0.017184,-0.20022 1.09e-4,-0.292496 0.043003,-0.229275 -0.087582,-0.113242 3.3128186,-2.943521 0.741455,-0.617149 1.458408,-1.215 1.593218,-1.328576 0.134809,-0.113569 1.193682,-0.994578 2.353054,-1.957788 1.159372,-0.963209 2.6043,-2.166012 3.210945,-2.672886 2.845628,-2.377608 3.557408,-2.951845 3.828562,-3.088726 0.603358,-0.304575 1.443938,-0.305556 2.04453,-0.0025 0.357613,0.180529 0.26081,0.102252 3.872999,3.131846 0.601531,0.504511 1.113234,0.924256 1.137125,0.932764 0.02456,0.0087 0.04988,-0.820537 0.05834,-1.911859 0.01484,-1.91957 0.01534,-1.927961 0.127307,-2.084927 0.06958,-0.09751 0.181703,-0.176849 0.294131,-0.208074 0.243575,-0.06765 3.796515,-0.06765 4.04009,0 0.112428,0.03127 0.224588,0.110567 0.29413,0.208074 l 0.112412,0.157603 0.01366,3.981537 0.01366,3.981546 0.47658,0.408001 c 0.262125,0.224395 0.783301,0.660755 1.158181,0.969681 1.527858,1.259076 2.270494,1.882796 2.467696,2.072529 0.216969,0.208753 0.294425,0.41977 0.237431,0.646848 -0.02993,0.119285 -1.103259,1.438992 -1.374916,1.690539 -0.106032,0.09818 -0.183261,0.122555 -0.388335,0.122555 -0.252729,0 -0.263718,-0.0067 -0.866188,-0.506464 -0.335617,-0.278547 -0.695921,-0.576358 -0.800679,-0.661794 -0.104749,-0.08544 -0.248143,-0.203766 -0.318641,-0.262947 -0.0705,-0.05918 -0.558353,-0.469169 -1.084113,-0.911078 -0.52576,-0.4419 -1.288347,-1.077331 -1.694638,-1.412068 C 33.159926,21.012818 30.525248,18.817282 30.34834,18.663971 30.31707,18.636811 30.197042,18.537443 30.081663,18.44308 29.966284,18.34872 29.80252,18.211768 29.717755,18.138764 29.444421,17.903337 27.322368,16.135669 27.150666,16.000372 26.980741,15.866468 26.773463,15.692704 26.462625,15.423553 25.93699,14.968408 25.023557,14.22718 24.988308,14.22718 c -0.03604,0 -1.006514,0.788515 -1.472423,1.196373 -0.09533,0.08349 -0.260776,0.222099 -0.367663,0.308088 -0.259536,0.208821 -0.326723,0.264674 -1.80669,1.502064 -0.703967,0.588588 -1.364638,1.140084 -1.468147,1.225553 -0.103518,0.08547 -0.213817,0.177578 -0.245109,0.20468 -0.03127,0.02708 -0.586342,0.489362 -1.233433,1.027236 -0.647091,0.537873 -1.332701,1.111314 -1.523565,1.274315 -0.190874,0.162993 -0.433535,0.365576 -0.539249,0.450174 -0.105713,0.0846 -0.710606,0.587993 -1.344218,1.118666 -1.943637,1.627854 -2.936262,2.445968 -3.169811,2.612515 -0.225995,0.16116 -0.426936,0.196912 -0.629385,0.111962 z"
     style="fill:#ffffff;fill-opacity:1" />
</svg>
