<?xml version="1.0" encoding="UTF-8" standalone="no"?>
<!-- Created with Inkscape (http://www.inkscape.org/) -->

<svg
   xmlns:dc="http://purl.org/dc/elements/1.1/"
   xmlns:cc="http://creativecommons.org/ns#"
   xmlns:rdf="http://www.w3.org/1999/02/22-rdf-syntax-ns#"
   xmlns:svg="http://www.w3.org/2000/svg"
   xmlns="http://www.w3.org/2000/svg"
   xmlns:sodipodi="http://sodipodi.sourceforge.net/DTD/sodipodi-0.dtd"
   xmlns:inkscape="http://www.inkscape.org/namespaces/inkscape"
   id="svg2"
   version="1.1"
   inkscape:version="0.91 r13725"
   width="48.712406"
   height="71.443565"
   viewBox="0 0 48.712406 71.443564"
   sodipodi:docname="porokaMarker.svg"
   inkscape:export-filename="C:\Razvoj\obljubiva-si\images\porokaMarker.png"
   inkscape:export-xdpi="88.181488"
   inkscape:export-ydpi="88.181488">
  <metadata
     id="metadata8">
    <rdf:RDF>
      <cc:Work
         rdf:about="">
        <dc:format>image/svg+xml</dc:format>
        <dc:type
           rdf:resource="http://purl.org/dc/dcmitype/StillImage" />
        <dc:title></dc:title>
      </cc:Work>
    </rdf:RDF>
  </metadata>
  <defs
     id="defs6" />
  <sodipodi:namedview
     pagecolor="#ffffff"
     bordercolor="#666666"
     borderopacity="1"
     objecttolerance="10"
     gridtolerance="10"
     guidetolerance="10"
     inkscape:pageopacity="0"
     inkscape:pageshadow="2"
     inkscape:window-width="1920"
     inkscape:window-height="1017"
     id="namedview4"
     showgrid="false"
     fit-margin-top="0"
     fit-margin-left="0"
     fit-margin-right="0"
     fit-margin-bottom="0"
     inkscape:zoom="10.136913"
     inkscape:cx="45.627208"
     inkscape:cy="34.797991"
     inkscape:window-x="-8"
     inkscape:window-y="-8"
     inkscape:window-maximized="1"
     inkscape:current-layer="svg2" />
  <path
     style="fill:#75121c;fill-opacity:1"
     d="M 24.354521,0 C 10.906165,0 0,10.906165 0,24.354521 0,32.230261 3.740892,39.227177 9.53574,43.680219 L 24.786062,71.443565 39.174985,43.680219 C 44.969832,39.227177 48.712408,32.230261 48.712408,24.354521 48.712408,10.906165 37.807927,0 24.354521,0 Z"
     id="path4721-7"
     inkscape:connector-curvature="0"
     sodipodi:nodetypes="sscccss" />
  <path
     style="fill:#174d0f;fill-opacity:1"
     d="m 24.354666,2.367586 c -12.297046,0 -22.269538,9.972492 -22.269538,22.269538 0,7.2015 3.4206354,13.599412 8.719388,17.671231 L 24.749263,67.69489 37.906355,42.308355 c 5.298752,-4.071819 8.720927,-10.469731 8.720927,-17.671231 0,-12.297046 -9.970952,-22.269538 -22.272616,-22.269538 z"
     id="path4721"
     inkscape:connector-curvature="0"
     sodipodi:nodetypes="sscccss"
     inkscape:export-xdpi="110.21426"
     inkscape:export-ydpi="110.21426" />
  <path
     inkscape:connector-curvature="0"
     id="path4738"
     d="m 15.619441,37.262824 c -0.262803,-0.09722 -0.533344,-0.266588 -0.6012,-0.376382 -0.06786,-0.109795 0.02085,-2.893357 0.197123,-6.185697 0.383296,-7.158996 0.426711,-11.49137 0.112005,-11.176661 -0.12141,0.121409 -0.288144,1.695564 -0.37052,3.498122 -0.08239,1.80256 -0.244611,3.461788 -0.360525,3.687177 -0.14133,0.274819 -0.410815,0.386684 -0.818162,0.339623 l -0.607415,-0.07017 0,-4.301898 c 0,-3.771123 0.05306,-4.408752 0.430073,-5.167916 0.432329,-0.870563 0.980167,-1.345128 1.851371,-1.603761 0.418233,-0.12416 0.566246,0.104396 1.341054,2.070769 0.479014,1.215682 1.018775,2.566939 1.199471,3.00279 l 0.328535,0.792454 1.080282,-2.935499 c 0.594157,-1.614522 1.185939,-2.970717 1.315072,-3.01376 0.438482,-0.146161 1.642163,0.647452 2.085977,1.375333 0.480002,0.787226 0.542352,2.625736 0.247259,7.290915 l -0.143216,2.264156 -0.679249,0 -0.679246,0 0,-3.602853 c 0,-2.41061 -0.08212,-3.630536 -0.24817,-3.686506 -0.350973,-0.118308 -0.544286,3.598917 -0.544286,10.466101 0,3.140541 -0.06544,6.037262 -0.145415,6.437155 -0.182931,0.914645 -0.956788,1.330312 -1.779118,0.955633 l -0.56604,-0.257904 0,-5.457699 c 0,-4.265046 -0.06184,-5.437285 -0.28302,-5.364272 -0.318725,0.105217 -0.552983,2.947336 -0.59605,7.231475 -0.01463,1.455106 -0.120665,2.893069 -0.235637,3.195475 -0.237248,0.624008 -0.828929,0.853501 -1.530953,0.593805 z m 6.494727,-0.372816 c 0,-0.21491 1.196463,-3.23493 2.658808,-6.711159 2.886038,-6.860587 2.478423,-6.231824 5.048411,-7.787402 l 0.801536,-0.485159 1.349413,0.858023 1.349413,0.858025 2.320761,6.339713 c 1.276419,3.486841 2.320761,6.559984 2.320761,6.829206 l 0,0.489495 -7.924551,0 c -7.353867,0 -7.924552,-0.02814 -7.924552,-0.390742 z M 32.312505,22.534192 c -1.028186,-0.686596 -1.368122,-1.046266 -1.368122,-1.447541 0,-0.724509 0.189575,-0.794438 1.329133,-0.490272 0.876915,0.234062 1.010378,0.216098 1.295931,-0.174421 0.363279,-0.496813 0.436109,-1.580394 0.09193,-1.367676 -0.124528,0.07696 -0.226417,0.340892 -0.226417,0.586509 0,0.59631 -0.591304,0.79125 -1.43458,0.472948 -0.548727,-0.207121 -0.760352,-0.195949 -1.042087,0.055 -0.300169,0.267381 -0.396657,0.267847 -0.639274,0.0031 -0.211369,-0.230658 -0.436203,-0.254615 -0.863796,-0.09204 -1.03882,0.394956 -1.454179,0.276684 -1.600675,-0.455799 -0.07431,-0.371564 -0.210932,-0.628713 -0.303597,-0.571441 -0.254024,0.156995 0.0026,1.196073 0.370927,1.501732 0.246598,0.204656 0.523432,0.206687 1.16361,0.0086 0.719465,-0.222693 0.880648,-0.205289 1.123048,0.121266 0.155662,0.209704 0.282339,0.489164 0.281506,0.621025 -0.0019,0.290185 -2.968601,1.937863 -3.489269,1.937863 -0.540796,0 -0.84283,-1.018205 -0.873108,-2.943405 -0.03052,-1.940382 0.404951,-3.053171 1.332863,-3.405963 0.995565,-0.378512 5.2178,-0.268296 6.042281,0.157731 1.236194,0.638764 1.324758,0.878594 1.201416,3.253482 -0.176061,3.389948 -0.375438,3.575791 -2.391716,2.229374 z m -7.700868,-2.485426 -0.785561,-0.657629 0.715729,-2.092961 c 0.393651,-1.151128 0.883871,-2.701218 1.08938,-3.444642 1.188642,-4.2999044 3.730174,-6.1908002 6.580884,-4.8961637 1.324496,0.6015134 1.842892,1.4761867 3.157924,5.3282597 0.640296,1.875587 1.303625,3.739545 1.474068,4.142131 0.298858,0.7059 0.281971,0.760848 -0.47413,1.542754 l -0.784025,0.810781 -0.131683,-1.49057 C 35.345679,18.062103 35.209394,17.682063 34.67871,17.12815 34.324607,16.758545 33.696547,16.392666 33.283017,16.315089 l -0.751866,-0.14105 0.549464,-0.653004 c 0.563101,-0.669204 0.931283,-1.512468 0.742706,-1.701045 -0.05819,-0.05819 -0.318237,0.254219 -0.577866,0.694258 -1.350452,2.288844 -4.130423,2.23515 -5.445765,-0.105185 -0.288013,-0.512453 -0.580224,-0.875172 -0.649356,-0.806041 -0.06912,0.06912 0.181458,0.61979 0.556863,1.223688 l 0.682553,1.097999 -0.919315,0.432707 c -1.244454,0.585751 -1.720471,1.324117 -1.91191,2.965639 l -0.161327,1.383338 z m -7.478614,-3.137467 c 0,-0.686754 0.290275,-0.906997 0.579217,-0.439476 0.151291,0.244794 0.745233,0.193974 1.515128,-0.129638 0.31963,-0.134352 0.396227,-0.05046 0.396227,0.433974 0,0.560138 -0.0517,0.590825 -0.768615,0.456331 -0.430646,-0.0808 -0.978208,-0.03202 -1.245286,0.110913 -0.435953,0.233318 -0.476671,0.196404 -0.476671,-0.432104 z M 16.71398,14.934313 c -0.417267,-0.205588 -1.015835,-0.762409 -1.330155,-1.237378 -0.485632,-0.733838 -0.555853,-1.052172 -0.467391,-2.118883 0.08672,-1.045732 0.232115,-1.387386 0.870899,-2.0464412 1.851731,-1.9105042 4.857375,-1.4321164 5.906738,0.9401362 1.341103,3.031788 -1.931726,5.964509 -4.980091,4.462566 z"
     style="fill:#ffffff;fill-opacity:1"
     sodipodi:nodetypes="scssscscssssscsssscccscssscsssssssscccsscsscssssssscsscssscsssssccccsssssscssscsssscscssccsssssssssssss" />
</svg>
